<?xml version="1.0" encoding="UTF-8" standalone="no"?>
<svg
   version="1.1"
   id="Layer_1"
   x="0px"
   y="0px"
   width="100%"
   viewBox="0 0 1024 1024"
   enable-background="new 0 0 1024 1024"
   xml:space="preserve"
   sodipodi:docname="vegahdark.svg"
   inkscape:version="1.4 (86a8ad7, 2024-10-11)"
   xmlns:inkscape="http://www.inkscape.org/namespaces/inkscape"
   xmlns:sodipodi="http://sodipodi.sourceforge.net/DTD/sodipodi-0.dtd"
   xmlns="http://www.w3.org/2000/svg"
   xmlns:svg="http://www.w3.org/2000/svg"><defs
   id="defs29" /><sodipodi:namedview
   id="namedview29"
   pagecolor="#ffffff"
   bordercolor="#000000"
   borderopacity="0.25"
   inkscape:showpageshadow="2"
   inkscape:pageopacity="0.0"
   inkscape:pagecheckerboard="0"
   inkscape:deskcolor="#d1d1d1"
   showgrid="false"
   inkscape:zoom="0.8376177"
   inkscape:cx="570.06914"
   inkscape:cy="396.95914"
   inkscape:window-width="2560"
   inkscape:window-height="1494"
   inkscape:window-x="-11"
   inkscape:window-y="-11"
   inkscape:window-maximized="1"
   inkscape:current-layer="Layer_1" />
<path
   fill="#000000"
   opacity="1"
   stroke="none"
   d="m 750.8075,542.992 c 10e-4,-36.66037 0.007,-72.82223 -0.005,-108.98413 -10e-4,-3.32272 0.17834,-6.664 -1.09369,-9.8674 -1.72644,-4.34799 -4.12085,-7.60937 -9.539,-6.94339 -4.83063,0.59384 -5.35101,-2.4671 -5.32007,-6.26645 0.0309,-3.78439 0.0364,-6.99481 5.3028,-6.90118 10.49524,0.18661 20.99707,0.13919 31.49414,0.0153 4.05218,-0.0478 5.52337,1.50485 5.49072,5.64191 -0.15893,20.16268 -0.0777,40.32739 -0.0595,60.49136 0.006,6.565 0.0364,6.58154 6.70593,6.58463 21.66382,0.01 43.32862,-0.10282 64.99054,0.0975 4.51496,0.0417 6.06159,-1.18192 6.00617,-5.88764 -0.23743,-20.16116 0.072,-40.32916 -0.21064,-60.48916 -0.0729,-5.19547 1.76484,-6.65042 6.61701,-6.52307 9.65875,0.25348 19.33228,0.24575 28.99231,0.0257 4.85461,-0.11062 6.33606,1.85053 6.19446,6.53653 -0.12738,4.21506 -0.43958,7.39716 -5.85175,6.67404 -4.18451,-0.55908 -6.53192,1.91559 -8.06891,5.34143 -1.59118,3.54666 -2.06738,7.336 -2.06634,11.20993 0.0106,39.32813 -0.005,78.65625 0.008,117.98438 0.003,7.51178 0.20703,7.73895 7.87219,7.93432 2.78907,0.0711 4.89801,0.3877 4.93964,3.96662 0.0432,3.71649 -2.04144,4.48273 -5.10809,4.44684 -3.9989,-0.0469 -7.99982,-0.0608 -11.99793,0.0129 -2.72711,0.0503 -5.77832,-0.76386 -7.47638,2.55212 -0.21026,0.41052 -1.19537,0.58203 -1.82715,0.59527 -10.64288,0.22309 -21.30877,0.62281 -31.85626,-1.20227 -3.38507,-0.58575 -2.05316,-3.69165 -2.19989,-5.80273 -0.13501,-1.94263 -0.25958,-3.91492 2.61359,-4.5235 9.47357,-2.00677 16.0896,-9.53857 16.237,-18.90069 0.22033,-13.99476 0.0126,-27.99573 0.11212,-41.99323 0.0227,-3.19369 -1.1543,-4.47992 -4.388,-4.46786 -20.49701,0.0764 -40.99457,0.0897 -61.49146,0.008 -3.54205,-0.0141 -4.59301,1.51874 -4.56561,4.84824 0.11511,13.99725 -0.0836,27.99817 0.13776,41.99298 0.10925,6.90601 3.945,12.21905 8.74817,16.83459 1.52697,1.46735 3.55493,1.80854 5.60351,1.63721 4.12281,-0.34491 4.46674,2.18378 4.52234,5.383 0.0592,3.4071 -0.90283,4.85254 -4.68896,5.37268 -8.47046,1.16363 -16.92932,0.91272 -25.39972,0.89325 -3.32795,-0.008 -6.98774,1.05908 -9.55078,-2.57672 -0.51569,-0.73151 -2.49958,-0.55671 -3.80988,-0.57618 -4.49847,-0.0669 -8.9986,-0.0571 -13.4978,-0.0314 -2.70075,0.0154 -4.909,-0.10943 -4.83032,-3.91003 0.0719,-3.47461 1.36975,-4.56757 4.77093,-4.59577 7.42932,-0.0615 7.50983,-0.30438 7.53863,-7.64062 0.0111,-2.83289 0.003,-5.66589 0.005,-8.99732 z"
   id="path1"
   style="fill:#0033c1;fill-opacity:1"
   sodipodi:nodetypes="csssssscsssssssssssssssssssssssssssssssssssssscc" />
<path
   fill="#000000"
   opacity="1"
   stroke="none"
   d="m 152.90419,412.62872 c -3.78619,2.49707 -7.69884,1.31357 -11.45042,1.45111 -6.82392,0.25031 -8.65984,2.42881 -5.76003,8.68216 4.20102,9.05945 9.01744,17.83469 13.60786,26.71225 9.25727,17.90287 18.53641,35.79441 27.8164,53.68552 0.67979,1.31061 1.14233,2.78589 3.10905,4.03799 5.35362,-9.53692 10.68385,-19.03216 15.83665,-28.21136 2.41111,-0.7804 2.58608,1.69803 4.04125,1.92825 1.11308,-0.35309 1.38457,-1.38974 1.84465,-2.23553 13.77052,-25.31443 27.53448,-50.63239 41.28477,-75.95783 2.7875,-5.13403 10.83689,-7.84964 16.12565,-5.42993 1.01001,0.4621 1.78472,1.17179 1.72814,2.21405 -0.23333,4.2973 2.58225,4.26795 5.60923,4.21512 4.16455,-0.0728 8.33535,0.10632 12.49634,-0.0342 3.92401,-0.13248 4.1126,2.28787 4.14566,5.22348 0.034,3.0144 -0.46582,5.85825 -4.16858,5.11414 -10.14063,-2.03781 -13.98859,4.05841 -18.13666,11.83068 -24.93889,46.72815 -50.32124,93.21964 -75.57085,139.78184 -0.69252,1.27703 -1.06526,2.84234 -3.50059,3.82727 -13.76242,-27.14881 -27.55184,-54.3509 -41.36634,-81.60251 -2.68241,0.45715 -2.82524,3.6047 -5.88279,4.09533 -1.99559,-3.81195 -4.16954,-7.84741 -6.23827,-11.93609 -10.1528,-20.06629 -20.36487,-40.10355 -30.339736,-60.25809 -2.028999,-4.0997 -4.482734,-6.34576 -9.22689,-5.65451 -4.467598,0.65097 -6.258042,-1.30661 -6.140991,-5.94272 0.307357,-12.17343 -1.032235,-11.10529 10.98616,-11.18454 5.998733,-0.0395 12.006207,0.18671 17.993937,-0.0724 3.75584,-0.16247 6.12387,1.10825 7.03815,4.74939 0.79268,3.15689 2.79288,4.05335 5.90813,3.98542 7.49497,-0.16352 14.99637,-0.0655 22.49491,-0.0238 6.23146,0.0347 6.23129,0.0657 5.71521,7.00949 z"
   id="path2"
   style="fill:#0033c1;fill-opacity:1"
   sodipodi:nodetypes="ccsssccccssscssssscccssssssssscc" />
<path
   fill="#000000"
   opacity="1"
   stroke="none"
   d="m 305.73016,496.99994 c -0.003,-9.99616 0.0691,-19.49314 -0.0346,-28.98819 -0.0747,-6.83902 -1.77838,-8.65085 -8.60724,-8.53436 -4.08966,0.0698 -5.58243,-1.27466 -5.49158,-5.43546 0.29208,-13.37488 -1.24783,-11.18008 11.01865,-11.29108 13.66006,-0.12359 27.32211,-0.0109 40.98321,-0.0421 2.95731,-0.007 5.5633,-0.12015 6.09586,4.00668 0.40228,3.11713 3.30224,3.26914 5.91861,3.24872 11.32757,-0.0884 22.65835,-0.0307 33.98141,-0.30044 4.11307,-0.098 5.69489,1.30249 5.54221,5.46426 -0.2442,6.65537 -0.0282,13.32642 -0.12815,19.98901 -0.0279,1.85639 0.64158,4.49729 -2.18298,4.83429 -3.01681,0.3599 -2.5932,-2.31247 -2.90118,-4.19607 -0.95322,-5.83008 -3.84403,-8.33972 -9.79022,-8.35193 -15.82691,-0.0324 -31.65516,0.087 -47.47995,-0.10144 -4.1774,-0.0497 -5.676,1.42538 -5.45716,5.52399 0.24839,4.6517 0.13846,9.32803 0.0408,13.99066 -0.0576,2.74811 1.04471,3.95468 3.83368,3.88177 3.82892,-0.10009 7.66309,-0.0357 11.49445,0.009 3.54532,0.0415 7.25775,-0.8284 9.21237,3.81454 0.92587,2.19928 3.86667,1.48972 5.96851,1.47315 3.38098,-0.0266 4.59582,1.40048 4.65316,4.83169 0.171,10.23453 0.30002,10.22812 -9.73446,10.21738 -5.66431,-0.006 -11.33035,0.0894 -16.99231,-0.0243 -3.41855,-0.0686 -4.75757,1.39172 -4.70963,4.78613 0.11997,8.49481 0.1297,16.99353 0.006,25.48816 -0.0478,3.28284 1.31976,4.34851 4.48007,4.33606 20.15805,-0.0795 40.3168,0.009 60.47479,-0.0751 4.68292,-0.0196 7.61932,-3.21661 8.55453,-8.75018 0.28699,-1.69812 -0.38015,-4.09357 2.53977,-3.85089 2.69055,0.22351 2.2247,2.51782 2.23962,4.24823 0.0632,7.32977 -0.008,14.66077 0.0571,21.99054 0.0233,2.60931 -0.8251,4.23328 -3.70041,4.02643 -2.46655,-0.17731 -4.21774,0.77209 -5.09411,3.10181 -1.18552,3.15167 -3.51261,3.91607 -6.70224,3.90435 -24.9896,-0.0918 -49.97986,-0.1018 -74.96942,-0.006 -3.83802,0.0148 -6.12864,-0.93213 -5.83765,-5.26904 0.19385,-2.88947 -1.60388,-3.64997 -4.16492,-3.59815 -3.6633,0.0741 -7.33063,-0.0601 -10.99456,-0.001 -2.47587,0.0397 -3.75525,-1.00226 -3.71656,-3.5282 0.0367,-2.39355 0.57529,-4.02838 3.5842,-4.26483 6.77759,-0.53284 7.97543,-1.99091 7.99591,-9.07776 0.0452,-15.66009 0.0143,-31.32037 0.0143,-47.48065 z"
   id="path3"
   style="fill:#0033c1;fill-opacity:1"
   sodipodi:nodetypes="cssssssssssssssssssssssssssssssssssssssscscc" />
<path
   fill="#000000"
   opacity="1"
   stroke="none"
   d="m 505.82324,462.94214 c -15.41138,1.17169 -27.49109,8.11767 -36.98483,19.31583 -14.7305,17.37509 -12.70789,40.83871 4.38547,56.34878 20.95794,19.01672 54.42743,17.33423 73.26806,-3.75317 1.8714,-2.09455 3.56507,-4.43573 4.90638,-6.89923 3.59906,-6.60987 1.55261,-10.0525 -5.92872,-10.03107 -3.65503,0.0104 -6.8861,0.1098 -7.98248,-4.59686 -0.60235,-2.58613 -3.39288,-2.29328 -5.52759,-2.30591 -3.20904,-0.019 -4.27966,-1.57376 -4.30181,-4.69077 -0.0237,-3.32031 1.46948,-4.42053 4.52465,-4.41348 13.49237,0.0311 26.98529,0.0594 40.47718,-0.0393 5.71734,-0.0418 4.92388,3.39499 4.29235,6.90116 -0.49963,0.27884 -0.77868,0.56698 -1.06683,0.57632 -9.84503,0.31983 -9.88953,0.30576 -12.08594,9.84131 -4.01648,17.43695 -13.85034,30.36774 -29.76245,38.61328 -1.94531,1.00806 -4.08935,1.77991 -3.74768,4.5943 0.43378,3.57239 -1.92535,4.3692 -4.70917,5.17542 -34.14794,9.89001 -79.69683,-9.33918 -86.60809,-53.45966 -0.77902,-4.9733 -3.92511,-3.85584 -6.90262,-4.14554 -2.5766,-0.2507 -6.06598,1.06915 -6.37152,-3.47775 -0.18466,-2.74799 0.5589,-4.59091 3.73666,-4.54733 1.83133,0.0251 3.66492,-0.0908 5.49567,-0.0537 2.38944,0.0484 3.56265,-0.90045 3.88956,-3.43454 3.62118,-28.07077 27.52206,-50.88693 56.78418,-55.25604 3.44784,-0.5148 6.95987,-0.58475 10.43033,-0.96789 2.79098,-0.30814 4.64383,0.60995 4.81927,3.58227 0.1741,2.94864 1.7558,3.6359 4.48627,4.0669 12.58417,1.98626 23.86517,7.11462 33.83771,15.04178 4.62072,3.67297 4.59631,4.74841 0.26855,9.47491 -0.32697,-0.0184 -0.7688,0.091 -0.96399,-0.0805 -12.2074,-10.7228 -27.3761,-10.4541 -42.65857,-11.37948 z"
   id="path4"
   style="fill:#0033c1;fill-opacity:1"
   sodipodi:nodetypes="cssssssssssccssscssssssssssscccc" />
<path
   fill="#000000"
   opacity="1"
   stroke="none"
   d="m 624.03888,563.93915 c -5.15875,0.0642 -10.45215,-1.32849 -12.44708,5.08307 -0.0823,0.26452 -0.4682,0.57769 -0.74781,0.6167 -7.28076,1.01654 -14.76294,1.48217 -21.79266,-0.15052 -3.40008,-0.78973 -0.95593,-5.92517 -1.30835,-9.06555 -0.24939,-2.22247 1.4458,-2.90802 3.28394,-2.67004 3.92645,0.50824 5.52008,-1.78424 7.04242,-4.90326 6.42962,-13.17267 13.14257,-26.20703 19.55175,-39.38928 1.55286,-3.19382 3.29779,-5.28699 7.13629,-4.75885 2.91138,0.40057 4.34827,-1.41874 4.95051,-3.8765 1.04016,-4.24472 3.79827,-5.22357 7.8197,-5.0864 7.11297,0.24262 14.24029,0.068 22.21869,0.068 -3.09052,-8.81241 -7.55085,-15.85187 -12.01654,-24.30875 -3.01093,6.52646 -6.99091,9.47183 -13.76703,6.38736 4.65027,-14.23596 15.72113,-24.75406 20.67334,-38.32709 3.14563,0.47562 3.55444,2.47312 4.36908,4.01749 18.18365,34.4733 36.44317,68.90747 54.39404,103.50171 2.56012,4.93365 5.35632,7.61658 11.08002,6.67493 2.67254,-0.43958 5.02063,0.0698 4.81762,3.81042 -0.13305,2.44995 -1.00885,3.72369 -3.57409,3.67395 -2.49799,-0.0485 -4.99842,0.0482 -7.49762,0.0382 -2.2395,-0.009 -4.38538,-0.0335 -4.98468,2.8941 -0.38983,1.90479 -2.07392,1.95044 -3.58258,1.9726 -3.33167,0.0488 -6.66449,0.0219 -9.99683,0.0194 -0.33221,-2.5e-4 -0.78253,0.0873 -0.97913,-0.0884 -3.85626,-3.44764 -8.13366,-5.4057 -13.52539,-5.42157 -2.00512,-0.006 -2.03649,-5.3487 0.0436,-6.69501 0.93036,-0.60217 2.32062,-0.38385 3.29145,-1.86115 -1.03235,-3.97259 -3.49225,-7.55462 -5.35614,-11.37823 -3.72101,-7.63336 -7.64905,-15.16583 -11.37024,-22.79919 -1.22327,-2.50928 -2.77503,-3.79542 -5.75788,-3.71558 -7.16027,0.19183 -14.33178,0.20257 -21.49237,0.0253 -2.99731,-0.0742 -4.50403,1.22778 -5.70337,3.76312 -4.34234,9.17999 -8.89514,18.26038 -13.23938,27.43945 -2.93341,6.19825 -1.63781,8.18732 5.07776,8.26056 1.1662,0.0127 2.33258,0.0223 3.49854,0.0493 1.65448,0.0383 2.93072,0.49139 3.04352,2.48852 0.11212,1.98731 -0.67823,3.34528 -2.68952,3.46937 -3.31934,0.20483 -6.65314,0.17578 -10.46356,0.24194 z"
   id="path5"
   style="fill:#0075ee;fill-opacity:1"
   sodipodi:nodetypes="cscssscsssscccccsssssssscsscsscscssssscc" />

















<path
   fill="#000000"
   opacity="1"
   stroke="none"
   d="m 888.90088,391.70306 c 2.83002,0.48023 6.03174,-1.33163 7.12579,2.49454 1.33411,4.66559 -0.26965,6.87592 -5.16022,6.88571 -4.13275,0.008 -8.26568,-0.14621 -12.39868,-0.21902 -3.32727,-0.0586 -4.61352,-1.83548 -4.68359,-5.05597 -0.0749,-3.44541 1.80432,-4.18405 4.71002,-4.10858 3.30506,0.0858 6.61432,0.01 10.40668,0.003 z"
   id="path23"
   style="fill:#0033c1;fill-opacity:1"
   sodipodi:nodetypes="cssssscc" />




<?xml version="1.0" encoding="UTF-8" standalone="no"?>
<svg
   version="1.1"
   id="Layer_1"
   x="0px"
   y="0px"
   width="100%"
   viewBox="0 0 1024 1024"
   enableBackground="new 0 0 1024 1024"
   xmlSpace="preserve"
   xmlns="http://www.w3.org/2000/svg">
<defs id="defs29" />
<path
   fill="#000000"
   opacity="1"
   stroke="none"
   d="m 857.01465,400.4115 c -2.96753,-1.10712 -2.32056,-3.25705 -1.93701,-5.13739 0.37115,-1.81989 2.08892,-1.98843 3.56958,-2.06693 2.64789,-0.14035 5.3045,-0.13391 7.9577,-0.15194 2.71814,-0.0185 3.76703,1.38186 3.75549,4.06524 -0.0122,2.84659 -1.44745,3.8772 -4.02136,3.78366 -2.98071,-0.10833 -5.9588,-0.2919 -9.3244,-0.49264 z"
   id="path28"
   style="fill:#0033c1;fill-opacity:1"
   sodipodi:nodetypes="csssssc" />

</svg>

</svg>

</svg>

</svg>

</svg>

</svg>

</svg>

</svg>

</svg>

</svg>

</svg>

</svg>

</svg>

</svg>

</svg>

</svg>

</svg>

</svg>

</svg>

</svg>

</svg>

</svg>

</svg>

</svg>

</svg>

</svg>

</svg>

</svg>

</svg>

</svg>

</svg>

</svg>

</svg>

</svg>

</svg>

</svg>

</svg>

</svg>

</svg>

</svg>

</svg>

</svg>

</svg>

</svg>

</svg>

</svg>

</svg>

</svg>

</svg>

</svg>

</svg>

</svg>

</svg>

</svg>

</svg>

</svg>

</svg>

</svg>

</svg>

</svg>

</svg>

</svg>

</svg>

</svg>

</svg>

</svg>

</svg>

</svg>

</svg>

</svg>

</svg>

</svg>

</svg>

</svg>

</svg>

</svg>

</svg>

</svg>

</svg>

</svg>

</svg>

</svg>

</svg>

</svg>

</svg>

</svg>

</svg>

</svg>

</svg>

</svg>

</svg>

</svg>

</svg>

</svg>

</svg>

</svg>

</svg>

</svg>

</svg>

</svg>

</svg>

</svg>

</svg>

</svg>

</svg>

</svg>

</svg>

</svg>

</svg>

</svg>

</svg>

</svg>

</svg>

</svg>

</svg>

</svg>

</svg>

</svg>

</svg>

</svg>

</svg>

</svg>

</svg>

</svg>

</svg>

</svg>

</svg>

</svg>

</svg>

</svg>

</svg>

</svg>

</svg>

</svg>

</svg>

</svg>

</svg>

</svg>

</svg>

</svg>

</svg>

</svg>

</svg>

</svg>

</svg>

</svg>

</svg>

</svg>

</svg>

</svg>

</svg>

</svg>

</svg>

</svg>

</svg>

</svg>

</svg>

</svg>

</svg>

</svg>

</svg>

</svg>

</svg>

</svg>

</svg>

</svg>

</svg>

</svg>

</svg>

</svg>

</svg>

</svg>

</svg>

</svg>

</svg>

</svg>

</svg>

</svg>

</svg>

</svg>

</svg>

</svg>

</svg>

</svg>

</svg>

</svg>

</svg>

</svg>

</svg>

</svg>

</svg>

</svg>

</svg>

</svg>

</svg>

</svg>

</svg>

</svg>

</svg>

</svg>

</svg>

</svg>

</svg>

</svg>

</svg>

</svg>

</svg>

</svg>

</svg>

</svg>

</svg>

</svg>

</svg>

</svg>

</svg>

</svg>

</svg>

</svg>

</svg>

</svg>

</svg>

</svg>

</svg>

</svg>

</svg>

</svg>

</svg>

</svg>

</svg>

</svg>

</svg>

</svg>

</svg>

</svg>

</svg>

</svg>

</svg>

</svg>

</svg>

</svg>

</svg>

</svg>

</svg>

</svg>

</svg>

</svg>

</svg>

</svg>

</svg>

</svg>

</svg>

</svg>

</svg>

</svg>

</svg>

</svg>

</svg>

</svg>

</svg>

</svg>

</svg>

</svg>

</svg>

</svg>

</svg>

</svg>

</svg>

</svg>

</svg>

</svg>

</svg>

</svg>

</svg>

</svg>

</svg>

</svg>

</svg>

</svg>

</svg>

</svg>

</svg>

</svg>

</svg>

</svg>

</svg>

</svg>

</svg>

</svg>

</svg>

</svg>

</svg>

</svg>

</svg>

</svg>

</svg>

</svg>

</svg>

</svg>

</svg>

</svg>

</svg>

</svg>

</svg>

</svg>

</svg>

</svg>

</svg>

</svg>

</svg>

</svg>

</svg>

</svg>

</svg>

</svg>

</svg>

</svg>

</svg>

</svg>

</svg>

</svg>

</svg>

</svg>

</svg>

</svg>

</svg>

</svg>

</svg>

</svg>

</svg>

</svg>

</svg>

</svg>

</svg>

</svg>

</svg>

</svg>

</svg>

</svg>

</svg>

</svg>

</svg>

</svg>

</svg>

</svg>

</svg>

</svg>

</svg>

</svg>

</svg>

</svg>

</svg>

</svg>

</svg>

</svg>

</svg>

</svg>

</svg>

</svg>

</svg>

</svg>

</svg>

</svg>

</svg>

</svg>

</svg>

</svg>

</svg>

</svg>

</svg>

</svg>

</svg>

</svg>

</svg>

</svg>

</svg>

</svg>

</svg>

</svg>

</svg>

</svg>

</svg>

</svg>

</svg>

</svg>

</svg>

</svg>

</svg>

</svg>

</svg>

</svg>

</svg>

</svg>

</svg>

</svg>

</svg>

</svg>

</svg>

</svg>

</svg>

</svg>

</svg>

</svg>

</svg>

</svg>

</svg>

</svg>

</svg>

</svg>

</svg>

</svg>

</svg>

</svg>

</svg>

</svg>

</svg>

</svg>

</svg>

</svg>

</svg>

</svg>

</svg>

</svg>

</svg>

</svg>

</svg>

</svg>

</svg>

</svg>

</svg>

</svg>

</svg>

</svg>

</svg>

</svg>

</svg>

</svg>

</svg>

</svg>

</svg>

</svg>

</svg>

</svg>

</svg>

</svg>

</svg>

</svg>

</svg>

</svg>

</svg>

</svg>

</svg>

</svg>

</svg>

</svg>

</svg>

</svg>

</svg>

</svg>

</svg>

</svg>

</svg>

</svg>

</svg>

</svg>

</svg>

</svg>

</svg>

</svg>

</svg>

</svg>

</svg>

</svg>

</svg>

</svg>

</svg>

</svg>

</svg>

</svg>

</svg>

</svg>

</svg>

</svg>

</svg>

</svg>

</svg>

</svg>

</svg>

</svg>

</svg>

</svg>

</svg>

</svg>

</svg>

</svg>

</svg>

</svg>

</svg>

</svg>

</svg>

</svg>

</svg>

</svg>

</svg>

</svg>

</svg>

</svg>

</svg>

</svg>

</svg>

</svg>

</svg>

</svg>

</svg>

</svg>

</svg>

</svg>

</svg>

</svg>

</svg>

</svg>

</svg>

</svg>

</svg>

</svg>

</svg>

</svg>

</svg>

</svg>

</svg>

</svg>

</svg>

</svg>

</svg>

</svg>

</svg>

</svg>

</svg>

</svg>

</svg>

</svg>

</svg>

</svg>

</svg>

</svg>

</svg>

</svg>

</svg>

</svg>

</svg>

</svg>

</svg>

</svg>

</svg>

</svg>

</svg>

</svg>

</svg>

</svg>

</svg>

</svg>

</svg>

</svg>

</svg>

</svg>

</svg>

</svg>

</svg>

</svg>

</svg>

</svg>

</svg>

</svg>

</svg>

</svg>

</svg>

</svg>

</svg>

</svg>

</svg>

</svg>

</svg>

</svg>

</svg>

</svg>

</svg>

</svg>

</svg>

</svg>

</svg>

</svg>

</svg>

</svg>

</svg>

</svg>

</svg>

</svg>

</svg>

</svg>

</svg>

</svg>

</svg>

</svg>

</svg>

</svg>

</svg>

</svg>

</svg>

</svg>

</svg>

</svg>

</svg>

</svg>

</svg>

</svg>

</svg>

</svg>

</svg>

</svg>

</svg>

</svg>

</svg>

</svg>

</svg>

</svg>

</svg>

</svg>

</svg>

</svg>

</svg>

</svg>

</svg>

</svg>

</svg>

</svg>

</svg>

</svg>

</svg>

</svg>

</svg>

</svg>

</svg>

</svg>

</svg>

</svg>

</svg>

</svg>

</svg>

</svg>

</svg>

</svg>

</svg>

</svg>

</svg>

</svg>

</svg>

</svg>

</svg>

</svg>

</svg>

</svg>

</svg>

</svg>

</svg>

</svg>

</svg>

</svg>

</svg>

</svg>

</svg>

</svg>

</svg>

</svg>

</svg>

</svg>

</svg>

</svg>

</svg>

</svg>

</svg>

</svg>

</svg>

</svg>

</svg>

</svg>

</svg>

</svg>

</svg>

</svg>

</svg>

</svg>

</svg>

</svg>

</svg>

</svg>

</svg>

</svg>

</svg>

</svg>

</svg>

</svg>

</svg>

</svg>

</svg>

</svg>

</svg>

</svg>

</svg>

</svg>

</svg>

</svg>

</svg>

</svg>

</svg>

</svg>

</svg>

</svg>

</svg>

</svg>

</svg>

</svg>

</svg>

</svg>

</svg>

</svg>

</svg>

</svg>

</svg>

</svg>

</svg>

</svg>

</svg>

</svg>

</svg>

</svg>

</svg>

</svg>

</svg>

</svg>

</svg>

</svg>

</svg>

</svg>

</svg>

</svg>

</svg>

</svg>

</svg>

</svg>

</svg>

</svg>

</svg>

</svg>

</svg>

</svg>

</svg>

</svg>

</svg>

</svg>

</svg>

</svg>

</svg>

</svg>

</svg>

</svg>

</svg>

</svg>

</svg>

</svg>

</svg>

</svg>

</svg>

</svg>

</svg>

</svg>

</svg>

</svg>

</svg>

</svg>

</svg>

</svg>

</svg>

</svg>

</svg>

</svg>

</svg>

</svg>

</svg>

</svg>

</svg>

</svg>

</svg>

</svg>

</svg>

</svg>

</svg>

</svg>

</svg>

</svg>

</svg>

</svg>

</svg>

</svg>

</svg>

</svg>

</svg>

</svg>

</svg>

</svg>

</svg>

</svg>

</svg>

</svg>

</svg>

</svg>

</svg>

</svg>

</svg>

</svg>

</svg>

</svg>

</svg>

</svg>

</svg>

</svg>

</svg>

</svg>

</svg>

</svg>

</svg>

</svg>

</svg>

</svg>

</svg>

</svg>

</svg>

</svg>

</svg>

</svg>

</svg>

</svg>

</svg>

</svg>

</svg>

</svg>

</svg>

</svg>

</svg>

</svg>

</svg>

</svg>

</svg>

</svg>

</svg>

</svg>

</svg>

</svg>

</svg>

</svg>

</svg>

</svg>

</svg>

</svg>

</svg>

</svg>

</svg>

</svg>

</svg>

</svg>

</svg>

</svg>

</svg>

</svg>

</svg>

</svg>

</svg>

</svg>

</svg>

</svg>

</svg>

</svg>

</svg>

</svg>

</svg>

</svg>

</svg>

</svg>

</svg>

</svg>

</svg>

</svg>

</svg>

</svg>

</svg>

</svg>

</svg>

</svg>

</svg>

</svg>

</svg>

</svg>

</svg>

</svg>

</svg>

</svg>

</svg>

</svg>

</svg>

</svg>

</svg>

</svg>

</svg>

</svg>

</svg>

</svg>

</svg>

</svg>

</svg>

</svg>

</svg>

</svg>

</svg>

</svg>

</svg>

</svg>

</svg>

</svg>

</svg>

</svg>

</svg>

</svg>

</svg>

</svg>

</svg>

</svg>

</svg>

</svg>

</svg>

</svg>

</svg>

</svg>

</svg>

</svg>

</svg>

</svg>

</svg>

</svg>

</svg>

</svg>

</svg>

</svg>

</svg>

</svg>

</svg>

</svg>

</svg>

</svg>

</svg>

</svg>

</svg>

</svg>

</svg>

</svg>

</svg>

</svg>

</svg>

</svg>

</svg>

</svg>

</svg>

</svg>

</svg>

</svg>

</svg>

</svg>

</svg>

</svg>

</svg>

</svg>

</svg>

</svg>

</svg>

</svg>

</svg>

</svg>

</svg>

</svg>

</svg>

</svg>

</svg>

</svg>

</svg>

</svg>

</svg>

</svg>

</svg>

</svg>

</svg>

</svg>

</svg>

</svg>

</svg>

</svg>

</svg>

</svg>

</svg>

</svg>

</svg>

</svg>

</svg>

</svg>

</svg>

</svg>

</svg>

</svg>

</svg>

</svg>

</svg>

</svg>

</svg>

</svg>

</svg>

</svg>

</svg>

</svg>

</svg>

</svg>

</svg>

</svg>

</svg>

</svg>

</svg>

</svg>

</svg>

</svg>

</svg>

</svg>

</svg>

</svg>

</svg>

</svg>

</svg>

</svg>

</svg>

</svg>

</svg>

</svg>

</svg>

</svg>

</svg>

</svg>

</svg>

</svg>

</svg>

</svg>

</svg>

</svg>

</svg>

</svg>

</svg>

</svg>

</svg>

</svg>

</svg>

</svg>

</svg>

</svg>

</svg>

</svg>

</svg>

</svg>

</svg>

</svg>

</svg>

</svg>

</svg>

</svg>

</svg>

</svg>

</svg>

</svg>

</svg>

</svg>

</svg>

</svg>

</svg>

</svg>

</svg>

</svg>

</svg>

</svg>

</svg>

</svg>

</svg>

</svg>

</svg>

</svg>

</svg>

</svg>

</svg>

</svg>

</svg>

</svg>

</svg>

</svg>

</svg>

</svg>

</svg>

</svg>

</svg>

</svg>

</svg>

</svg>

</svg>

</svg>

</svg>

</svg>

</svg>

</svg>

</svg>

</svg>

</svg>

</svg>

</svg>

</svg>

</svg>

</svg>

</svg>

</svg>

</svg>

</svg>

</svg>

</svg>

</svg>

</svg>

</svg>

</svg>

</svg>

</svg>

</svg>

</svg>

</svg>

</svg>

</svg>

</svg>

</svg>

</svg>

</svg>

</svg>

</svg>

</svg>

</svg>

</svg>

</svg>

</svg>

</svg>

</svg>

</svg>

</svg>

</svg>

</svg>

</svg>

</svg>

</svg>

</svg>

</svg>

</svg>

</svg>

</svg>

</svg>

</svg>

</svg>

</svg>

</svg>

</svg>

</svg>

</svg>

</svg>

</svg>

</svg>

</svg>

</svg>

</svg>

</svg>

</svg>

</svg>

</svg>

</svg>

</svg>

</svg>

</svg>

</svg>

</svg>

</svg>

</svg>

</svg>

</svg>

</svg>

</svg>

</svg>

</svg>

</svg>

</svg>

</svg>

</svg>

</svg>

</svg>

</svg>

</svg>

</svg>

</svg>

</svg>

</svg>

</svg>

</svg>

</svg>

</svg>

</svg>

</svg>

</svg>

</svg>

</svg>

</svg>

</svg>

</svg>

</svg>

</svg>

</svg>

</svg>

</svg>

</svg>

</svg>

</svg>

</svg>

</svg>

</svg>

</svg>

</svg>

</svg>

</svg>

</svg>

</svg>

</svg>

</svg>

</svg>

</svg>

</svg>

</svg>

</svg>

</svg>

</svg>

</svg>

</svg>

</svg>

</svg>

</svg>

</svg>

</svg>

</svg>

</svg>

</svg>

</svg>

</svg>

</svg>

</svg>

</svg>

</svg>

</svg>

</svg>

</svg>

</svg>

</svg>

</svg>

</svg>

</svg>

</svg>

</svg>

</svg>

</svg>

</svg>

</svg>

</svg>

</svg>

</svg>

</svg>

</svg>

</svg>

</svg>

</svg>

</svg>

</svg>

</svg>

</svg>

</svg>

</svg>

</svg>

</svg>

</svg>

</svg>

</svg>

</svg>

</svg>

</svg>

</svg>

</svg>

</svg>

</svg>

</svg>

</svg>

</svg>

</svg>

</svg>

</svg>

</svg>

</svg>

</svg>

</svg>

</svg>

</svg>

</svg>

</svg>

</svg>

</svg>

</svg>

</svg>

</svg>

</svg>

</svg>

</svg>

</svg>

</svg>

</svg>

</svg>

</svg>

</svg>

</svg>

</svg>

</svg>

</svg>

</svg>

</svg>

</svg>

</svg>

</svg>

</svg>

</svg>

</svg>

</svg>

</svg>

</svg>

</svg>

</svg>

</svg>

</svg>

</svg>

</svg>

</svg>

</svg>

</svg>

</svg>

</svg>

</svg>

</svg>

</svg>

</svg>

</svg>

</svg>

</svg>

</svg>

</svg>

</svg>

</svg>

</svg>

</svg>

</svg>

</svg>

</svg>

</svg>

</svg>

</svg>

</svg>

</svg>

</svg>

</svg>

</svg>

</svg>

</svg>

</svg>

</svg>

</svg>

</svg>

</svg>

</svg>

</svg>

</svg>

</svg>

</svg>

</svg>

</svg>

</svg>

</svg>

</svg>

</svg>

</svg>

</svg>

</svg>

</svg>

</svg>

</svg>

</svg>

</svg>

</svg>

</svg>

</svg>

</svg>

</svg>

</svg>

</svg>

</svg>

</svg>

</svg>

</svg>

</svg>

</svg>

</svg>

</svg>

</svg>

</svg>

</svg>

</svg>

</svg>

</svg>

</svg>

</svg>

</svg>

</svg>

</svg>

</svg>

</svg>

</svg>

</svg>

</svg>

</svg>

</svg>

</svg>

</svg>

</svg>

</svg>

</svg>

</svg>

</svg>

</svg>

</svg>

</svg>

</svg>

</svg>

</svg>

</svg>

</svg>

</svg>

</svg>

</svg>

</svg>

</svg>

</svg>

</svg>

</svg>

</svg>

</svg>

</svg>

</svg>

</svg>

</svg>

</svg>

</svg>

</svg>

</svg>

</svg>

</svg>

</svg>

</svg>

</svg>

</svg>

</svg>

</svg>

</svg>

</svg>

</svg>

</svg>

</svg>

</svg>

</svg>

</svg>

</svg>

</svg>

</svg>

</svg>

</svg>

</svg>

</svg>

</svg>

</svg>

</svg>

</svg>

</svg>

</svg>

</svg>

</svg>

</svg>

</svg>

</svg>

</svg>

</svg>

</svg>

</svg>

</svg>

</svg>

</svg>

</svg>

</svg>

</svg>

</svg>

</svg>

</svg>

</svg>

</svg>

</svg>

</svg>

</svg>

</svg>

</svg>

</svg>

</svg>

</svg>

</svg>

</svg>

</svg>

</svg>

</svg>

</svg>

</svg>

</svg>

</svg>

</svg>

</svg>

</svg>

</svg>

</svg>

</svg>

</svg>

</svg>

</svg>

</svg>

</svg>

</svg>

</svg>

</svg>

</svg>

</svg>

</svg>

</svg>

</svg>

</svg>

</svg>

</svg>

</svg>

</svg>

</svg>

</svg>

</svg>

</svg>

</svg>

</svg>

</svg>

</svg>

</svg>

</svg>

</svg>

</svg>

</svg>

</svg>

</svg>

</svg>

</svg>

</svg>

</svg>

</svg>

</svg>

</svg>

</svg>

</svg>

</svg>

</svg>

</svg>

</svg>

</svg>

</svg>

</svg>

</svg>

</svg>

</svg>

</svg>

</svg>

</svg>

</svg>

</svg>

</svg>

</svg>

</svg>

</svg>

</svg>

</svg>

</svg>

</svg>

</svg>

</svg>

</svg>

</svg>

</svg>

</svg>

</svg>

</svg>

</svg>

</svg>

</svg>

</svg>

</svg>

</svg>

</svg>

</svg>

</svg>

</svg>

</svg>

</svg>

</svg>

</svg>

</svg>

</svg>

</svg>

</svg>

</svg>

</svg>

</svg>

</svg>

</svg>

</svg>

</svg>

</svg>

</svg>

</svg>

</svg>

</svg>

</svg>

</svg>

</svg>

</svg>

</svg>

</svg>

</svg>

</svg>

</svg>

</svg>

</svg>

</svg>

</svg>

</svg>

</svg>

</svg>

</svg>

</svg>

</svg>

</svg>

</svg>

</svg>

</svg>

</svg>

</svg>

</svg>

</svg>

</svg>

</svg>

</svg>

</svg>

</svg>

</svg>

</svg>

</svg>

</svg>

</svg>

</svg>

</svg>

</svg>

</svg>

</svg>

</svg>

</svg>

</svg>

</svg>

</svg>

</svg>

</svg>

</svg>

</svg>

</svg>

</svg>

</svg>

</svg>

</svg>

</svg>

</svg>

</svg>

</svg>

</svg>

</svg>

</svg>

</svg>

</svg>

</svg>

</svg>

</svg>

</svg>

</svg>

</svg>

</svg>

</svg>

</svg>

</svg>

</svg>

</svg>

</svg>

</svg>

</svg>

</svg>

</svg>

</svg>

</svg>

</svg>

</svg>

</svg>

</svg>

</svg>

</svg>

</svg>

</svg>

</svg>
